<svg xmlns="http://www.w3.org/2000/svg" version="1.0" width="192.000000pt" height="192.000000pt" viewBox="0 0 192.000000 192.000000" preserveAspectRatio="xMidYMid meet">
<g transform="translate(0.000000,192.000000) scale(0.100000,-0.100000)" fill="#000000" stroke="none">
<path d="M793 1611 c-262 -80 -438 -257 -504 -506 -31 -117 -32 -317 -2 -398 55 -147 181 -285 330 -360 133 -68 363 -96 505 -63 91 22 219 83 287 136 62 49 133 142 172 225 96 207 69 513 -62 710 -78 116 -187 197 -324 242 -110 35 -309 42 -402 14z m379 -64 c191 -62 331 -207 389 -403 28 -93 30 -290 5 -384 -19 -71 -69 -170 -119 -232 -67 -85 -224 -175 -345 -198 -77 -16 -253 -8 -334 14 -222 60 -402 241 -439 442 -23 124 17 346 82 461 80 140 225 249 404 304 49 15 83 18 185 15 72 -3 145 -11 172 -19z"/>
<path d="M1382 1071 c-20 -12 -11 -55 12 -59 11 -3 26 4 33 14 11 15 10 21 -4 36 -18 20 -22 21 -41 9z"/>
<path d="M454 1055 c-10 -25 4 -45 31 -45 30 0 43 24 25 45 -16 19 -49 19 -56 0z"/>
<path d="M403 885 c-9 -7 -14 -19 -10 -29 6 -15 56 -16 567 -16 500 0 561 2 567 16 3 8 1 20 -5 26 -17 17 -1096 19 -1119 3z"/>
</g>
</svg>